<?xml version="1.0" encoding="UTF-8"?>
<svg version="1.1" xmlns="http://www.w3.org/2000/svg" width="500" height="500">
<path d="M0 0 C165 0 330 0 500 0 C500 165 500 330 500 500 C335 500 170 500 0 500 C0 335 0 170 0 0 Z " fill="#FEFEFE" transform="translate(0,0)"/>
<path d="M0 0 C11.60711193 9.12762659 20.13499819 22.18075787 23.22558594 36.73193359 C24.87009287 56.38908078 22.87886504 72.10311169 10.22558594 87.73193359 C9.5875 88.56466797 8.94941406 89.39740234 8.29199219 90.25537109 C1.53915082 98.3485685 -7.17738413 102.78243504 -16.77441406 106.73193359 C-17.64453125 107.11607422 -18.51464844 107.50021484 -19.41113281 107.89599609 C-21.77441406 108.73193359 -21.77441406 108.73193359 -25.77441406 108.73193359 C-25.77441406 127.87193359 -25.77441406 147.01193359 -25.77441406 166.73193359 C-9.60441406 166.73193359 6.56558594 166.73193359 23.22558594 166.73193359 C23.22558594 173.99193359 23.22558594 181.25193359 23.22558594 188.73193359 C7.05558594 188.73193359 -9.11441406 188.73193359 -25.77441406 188.73193359 C-25.75669749 203.63991175 -25.718357 218.54749522 -25.64232349 233.45528698 C-25.60768099 240.37737229 -25.58231898 247.29925862 -25.57885742 254.22143555 C-25.57549153 260.90006487 -25.54619379 267.57811792 -25.50098228 274.25661659 C-25.48797893 276.80629882 -25.48370957 279.35604085 -25.48826027 281.90575218 C-25.4931457 285.4736085 -25.4671618 289.03999071 -25.43383789 292.60766602 C-25.44246353 293.66502457 -25.45108917 294.72238312 -25.4599762 295.81178284 C-25.38501784 300.59000759 -25.33073461 302.97145363 -22.4473114 306.91304016 C-18.7776708 309.41021246 -16.80822387 309.02962878 -12.46191406 308.35693359 C-11.41620239 308.19608276 -11.41620239 308.19608276 -10.34936523 308.03198242 C-2.58199731 306.72420685 4.81959783 304.36344369 12.22558594 301.73193359 C13.32515625 301.35037109 14.42472656 300.96880859 15.55761719 300.57568359 C34.31942816 293.7279696 52.71100185 283.65273751 66.72558594 269.23193359 C67.55058594 268.40693359 68.37558594 267.58193359 69.22558594 266.73193359 C69.88558594 266.73193359 70.54558594 266.73193359 71.22558594 266.73193359 C71.48082031 266.14927734 71.73605469 265.56662109 71.99902344 264.96630859 C73.34299681 262.51805136 74.84368889 260.91450112 76.85058594 258.98193359 C77.48222656 258.36833984 78.11386719 257.75474609 78.76464844 257.12255859 C79.24675781 256.66365234 79.72886719 256.20474609 80.22558594 255.73193359 C83.06817199 257.04431528 85.31966839 258.49900535 87.67871094 260.55224609 C88.29746094 261.08720703 88.91621094 261.62216797 89.55371094 262.17333984 C90.18792969 262.72892578 90.82214844 263.28451172 91.47558594 263.85693359 C92.12527344 264.42025391 92.77496094 264.98357422 93.44433594 265.56396484 C95.04131293 266.94957724 96.63388716 268.34026113 98.22558594 269.73193359 C97.83161621 270.19083984 97.43764648 270.64974609 97.03173828 271.12255859 C93.69659315 275.00901173 93.69659315 275.00901173 90.38964844 278.91943359 C89.88175781 279.51755859 89.37386719 280.11568359 88.85058594 280.73193359 C88.34785156 281.33005859 87.84511719 281.92818359 87.32714844 282.54443359 C56.45218328 314.68194379 12.0823062 332.69575799 -32.04394531 333.86083984 C-60.0103089 334.34912725 -86.43831428 329.88506594 -111.77441406 317.73193359 C-112.55091309 317.36616211 -113.32741211 317.00039063 -114.12744141 316.62353516 C-135.67649102 306.34690891 -155.77722851 291.43564789 -170.77441406 272.73193359 C-169.22776175 268.77033293 -166.72848955 266.75025178 -163.46191406 264.10693359 C-162.51703125 263.33091797 -161.57214844 262.55490234 -160.59863281 261.75537109 C-158.01254803 259.90254687 -155.77090274 258.74713741 -152.77441406 257.73193359 C-151.77474609 258.8746875 -151.77474609 258.8746875 -150.75488281 260.04052734 C-144.58906746 266.98822729 -138.21214679 273.11546386 -130.77441406 278.73193359 C-129.61039063 279.61945313 -129.61039063 279.61945313 -128.42285156 280.52490234 C-108.63909477 294.98226308 -83.8702183 306.2799201 -59.27441406 308.29443359 C-55.43395222 307.67721651 -53.69092938 306.53523813 -51.03850937 303.72089767 C-48.51709961 299.7536387 -48.94707651 295.33438629 -49.00146484 290.76953125 C-48.99083511 289.67625519 -48.98020538 288.58297913 -48.96925354 287.45657349 C-48.94120892 283.85257901 -48.95526147 280.25004972 -48.96972656 276.64599609 C-48.95847652 274.14349081 -48.94459594 271.64099609 -48.92819214 269.13851929 C-48.89581168 263.23123517 -48.88990758 257.32430269 -48.89691722 251.4169687 C-48.90519625 242.84697586 -48.85972042 234.27723765 -48.8208313 225.70735168 C-48.77137956 213.71530458 -48.77827142 201.7244725 -48.77441406 189.73193359 C-65.27441406 189.73193359 -81.77441406 189.73193359 -98.77441406 189.73193359 C-98.77441406 182.14193359 -98.77441406 174.55193359 -98.77441406 166.73193359 C-82.27441406 166.73193359 -65.77441406 166.73193359 -48.77441406 166.73193359 C-48.77441406 147.59193359 -48.77441406 128.45193359 -48.77441406 108.73193359 C-52.07441406 108.07193359 -55.37441406 107.41193359 -58.77441406 106.73193359 C-73.42836874 101.30395686 -84.40963761 91.53596645 -91.77441406 77.73193359 C-92.25652344 76.85923828 -92.73863281 75.98654297 -93.23535156 75.08740234 C-100.30470734 61.13257576 -100.77638581 43.8987659 -96.09472656 29.14990234 C-92.23475477 19.15737181 -86.2889221 11.27352094 -78.77441406 3.73193359 C-77.96423828 2.88695313 -77.96423828 2.88695313 -77.13769531 2.02490234 C-55.96270251 -18.19001522 -22.62152486 -16.16623557 0 0 Z " fill="#929292" transform="translate(287.7744140625,100.26806640625)"/>
<path d="M0 0 C9.10405448 5.73447235 14.89426748 15.91490153 18 26 C20.63556035 38.73854169 18.37180612 51.33108415 11.70703125 62.50390625 C5.28280313 71.89768605 -4.71884076 78.67686611 -16 81 C-30.02640742 82.11675218 -41.86941758 81.74320868 -53.12890625 72.61328125 C-53.74636719 72.08089844 -54.36382812 71.54851562 -55 71 C-55.60714844 70.49855469 -56.21429688 69.99710937 -56.83984375 69.48046875 C-64.26723789 62.80068978 -69.72780271 51.94560461 -70.37109375 41.93359375 C-70.75670923 27.85628679 -67.90596727 16.52509022 -58 6 C-41.80250016 -10.3849709 -19.23368277 -11.07120544 0 0 Z " fill="#FEFEFE" transform="translate(276,112)"/>
</svg>
